<mxfile host="app.diagrams.net" agent="Mozilla/5.0 (Windows NT 10.0; Win64; x64) AppleWebKit/537.36 (KHTML, like Gecko) Chrome/135.0.0.0 Safari/537.36" version="26.2.14">
  <diagram name="P치gina-1" id="ZfuYBb1uDBB9Q9XqHdRm">
    <mxGraphModel grid="1" page="1" gridSize="10" guides="1" tooltips="1" connect="1" arrows="1" fold="1" pageScale="1" pageWidth="827" pageHeight="1169" math="0" shadow="0">
      <root>
        <mxCell id="0" />
        <mxCell id="1" parent="0" />
        <mxCell id="Xy3kY2UkPaOCshvsATr--7" style="edgeStyle=orthogonalEdgeStyle;rounded=0;orthogonalLoop=1;jettySize=auto;html=1;exitX=0.5;exitY=0.5;exitDx=0;exitDy=0;exitPerimeter=0;entryX=0;entryY=0.5;entryDx=0;entryDy=0;" edge="1" parent="1" source="Xy3kY2UkPaOCshvsATr--1" target="Xy3kY2UkPaOCshvsATr--2">
          <mxGeometry relative="1" as="geometry" />
        </mxCell>
        <mxCell id="Xy3kY2UkPaOCshvsATr--9" style="edgeStyle=orthogonalEdgeStyle;rounded=0;orthogonalLoop=1;jettySize=auto;html=1;exitX=0.5;exitY=0.5;exitDx=0;exitDy=0;exitPerimeter=0;" edge="1" parent="1" source="Xy3kY2UkPaOCshvsATr--1" target="Xy3kY2UkPaOCshvsATr--4">
          <mxGeometry relative="1" as="geometry">
            <Array as="points">
              <mxPoint x="160" y="340" />
              <mxPoint x="160" y="340" />
            </Array>
          </mxGeometry>
        </mxCell>
        <mxCell id="Xy3kY2UkPaOCshvsATr--10" style="edgeStyle=orthogonalEdgeStyle;rounded=0;orthogonalLoop=1;jettySize=auto;html=1;exitX=0.5;exitY=0.5;exitDx=0;exitDy=0;exitPerimeter=0;entryX=0;entryY=0.5;entryDx=0;entryDy=0;" edge="1" parent="1" source="Xy3kY2UkPaOCshvsATr--1" target="Xy3kY2UkPaOCshvsATr--5">
          <mxGeometry relative="1" as="geometry" />
        </mxCell>
        <mxCell id="LNx-PBO9m9lHoqWZFwc0-2" style="edgeStyle=orthogonalEdgeStyle;rounded=0;orthogonalLoop=1;jettySize=auto;html=1;exitX=0.5;exitY=0.5;exitDx=0;exitDy=0;exitPerimeter=0;entryX=0;entryY=0.5;entryDx=0;entryDy=0;" edge="1" parent="1" source="Xy3kY2UkPaOCshvsATr--1" target="LNx-PBO9m9lHoqWZFwc0-1">
          <mxGeometry relative="1" as="geometry" />
        </mxCell>
        <mxCell id="LNx-PBO9m9lHoqWZFwc0-3" style="edgeStyle=orthogonalEdgeStyle;rounded=0;orthogonalLoop=1;jettySize=auto;html=1;exitX=0.5;exitY=0.5;exitDx=0;exitDy=0;exitPerimeter=0;entryX=0;entryY=0.5;entryDx=0;entryDy=0;" edge="1" parent="1" source="Xy3kY2UkPaOCshvsATr--1" target="Xy3kY2UkPaOCshvsATr--3">
          <mxGeometry relative="1" as="geometry" />
        </mxCell>
        <mxCell id="Xy3kY2UkPaOCshvsATr--1" value="Recepcionista" style="shape=umlActor;verticalLabelPosition=bottom;verticalAlign=top;html=1;" vertex="1" parent="1">
          <mxGeometry x="60" y="310" width="30" height="60" as="geometry" />
        </mxCell>
        <mxCell id="Xy3kY2UkPaOCshvsATr--2" value="Registrar Equipos y Clientes" style="ellipse;whiteSpace=wrap;html=1;" vertex="1" parent="1">
          <mxGeometry x="180" y="142.75" width="140" height="70" as="geometry" />
        </mxCell>
        <mxCell id="Xy3kY2UkPaOCshvsATr--3" value="Gestionar Cotizaciones" style="ellipse;whiteSpace=wrap;html=1;" vertex="1" parent="1">
          <mxGeometry x="180" y="222.75" width="140" height="70" as="geometry" />
        </mxCell>
        <mxCell id="Xy3kY2UkPaOCshvsATr--4" value="Consultar Informaci칩n de Equipos" style="ellipse;whiteSpace=wrap;html=1;" vertex="1" parent="1">
          <mxGeometry x="180" y="302.75" width="140" height="70" as="geometry" />
        </mxCell>
        <mxCell id="Xy3kY2UkPaOCshvsATr--5" value="Gestionar Informaci칩n de Clientes" style="ellipse;whiteSpace=wrap;html=1;" vertex="1" parent="1">
          <mxGeometry x="180" y="382.75" width="140" height="70" as="geometry" />
        </mxCell>
        <mxCell id="LNx-PBO9m9lHoqWZFwc0-1" value="Gesti칩n Personal" style="ellipse;whiteSpace=wrap;html=1;" vertex="1" parent="1">
          <mxGeometry x="180" y="467.25" width="140" height="70" as="geometry" />
        </mxCell>
      </root>
    </mxGraphModel>
  </diagram>
</mxfile>
